# xmcd
#
# Track frame offsets:
#	150
#	17612
#	37005
#	55573
#	76530
#	93513
#	112297
#	123998
#	143041
#	161938
#	180851
#	196103
#	208372
#	224101
#
# Disc length: 3218 seconds
#
# Revision: 0
# Processed by: cddbd v1.5.2PL0 Copyright (c) Steve Scherf et al.
# Submitted via: dBpowerAMP V4.0
#
DISCID=c40c900e
DTITLE=Pirisca Grecco - Muchas Gracias
DYEAR=1900
DGENRE=Country
TTITLE0=No céu da fronteira
TTITLE1=Mão ligeira
TTITLE2=Pala da noite (Vivo)
TTITLE3=Sumo de mim (Vivo)
TTITLE4=Na fogueira da milonga
TTITLE5=Feito o carreto (Vivo)
TTITLE6=Carreira de campo
TTITLE7=Jogando truco
TTITLE8=Floreio pro avô
TTITLE9=Na alma e na voz
TTITLE10=Romance de fronteira
TTITLE11=O 'revórve' do tropeiro (Vivo)
TTITLE12=Milonga 'véia' Chambona (Vivo)
TTITLE13=Muchas Gracias!
EXTD=
EXTT0=
EXTT1=
EXTT2=
EXTT3=
EXTT4=
EXTT5=
EXTT6=
EXTT7=
EXTT8=
EXTT9=
EXTT10=
EXTT11=
EXTT12=
EXTT13=
PLAYORDER=
